<?xml version="1.0" encoding="iso-8859-1"?>
<!-- Generator: Adobe Illustrator 19.1.0, SVG Export Plug-In . SVG Version: 6.00 Build 0)  -->
<svg version="1.1" id="Capa_1" xmlns="http://www.w3.org/2000/svg" xmlns:xlink="http://www.w3.org/1999/xlink" x="0px" y="0px"
	 viewBox="0 0 481.72 481.72" style="enable-background:new 0 0 481.72 481.72;" xml:space="preserve">
<g>
	<path d="M474.993,412.91l-83.7-48.4l0.1-151.2c0-0.1,0-0.1,0-0.2c0-0.1,0-0.3,0-0.4c0-0.3,0-0.5-0.1-0.8c0-0.1,0-0.2,0-0.4
		c0-0.4-0.1-0.7-0.2-1c0-0.1-0.1-0.3-0.1-0.4c-0.1-0.3-0.1-0.6-0.2-0.8c0-0.1-0.1-0.2-0.1-0.3c-0.1-0.4-0.3-0.7-0.4-1.1
		c0-0.1-0.1-0.2-0.1-0.3c-0.2-0.4-0.3-0.7-0.5-1.1l0,0l0,0c-0.2-0.3-0.4-0.7-0.6-1c-0.1-0.1-0.1-0.2-0.2-0.3
		c-0.2-0.3-0.5-0.6-0.7-0.9c-0.1-0.1-0.2-0.2-0.2-0.2c-0.2-0.2-0.4-0.4-0.6-0.6c-0.1-0.1-0.2-0.2-0.3-0.3c-0.3-0.2-0.5-0.5-0.8-0.7
		c-0.1-0.1-0.2-0.2-0.3-0.2c-0.2-0.1-0.4-0.3-0.6-0.4c-0.1-0.1-0.3-0.2-0.4-0.2l-0.1-0.1l-131.5-76v-95.9c0-7.5-6-13.5-13.5-13.5
		s-13.5,6-13.5,13.5v96.7l-130.4,75.2l-0.1,0.1c-0.1,0.1-0.3,0.2-0.4,0.2c-0.2,0.1-0.4,0.3-0.6,0.4c-0.1,0.1-0.2,0.2-0.3,0.2
		c-0.3,0.2-0.5,0.4-0.8,0.7c-0.1,0.1-0.2,0.2-0.3,0.3c-0.2,0.2-0.4,0.4-0.6,0.6c-0.1,0.1-0.2,0.2-0.2,0.2c-0.2,0.3-0.5,0.6-0.7,0.9
		c-0.1,0.1-0.1,0.2-0.2,0.3c-0.5,0.7-0.9,1.4-1.2,2.1c0,0.1-0.1,0.2-0.1,0.3c-0.2,0.3-0.3,0.7-0.4,1.1c0,0.1-0.1,0.2-0.1,0.3
		c-0.1,0.3-0.2,0.6-0.2,0.8c0,0.1-0.1,0.3-0.1,0.4c-0.1,0.3-0.1,0.7-0.2,1.1c0,0.1,0,0.2,0,0.4c0,0.3,0,0.5-0.1,0.8
		c0,0.1,0,0.3,0,0.4c0,0.1,0,0.1,0,0.2l-0.1,152.3l-82.5,47.6c-6.5,3.7-8.7,12-5,18.4c2.5,4.3,7,6.8,11.7,6.8c2.3,0,4.6-0.6,6.7-1.8
		l83.4-48.1l129.9,75.1c0,0,0.1,0,0.1,0.1c0.5,0.3,1,0.5,1.5,0.7h0.1c0.5,0.2,0.9,0.3,1.4,0.5c0.1,0,0.3,0.1,0.4,0.1
		c0.4,0.1,0.8,0.2,1.2,0.2c0.1,0,0.3,0,0.4,0.1c0.5,0.1,1.1,0.1,1.6,0.1l0,0c0.5,0,1.1,0,1.6-0.1c0.1,0,0.3,0,0.4-0.1
		c0.4-0.1,0.8-0.1,1.2-0.2c0.1,0,0.3-0.1,0.4-0.1c0.5-0.1,1-0.3,1.4-0.5h0.1c0.5-0.2,1-0.5,1.5-0.7c0,0,0.1,0,0.1-0.1l131-75.5
		l83.7,48.4c2.1,1.2,4.5,1.8,6.7,1.8c4.7,0,9.2-2.4,11.7-6.7C483.593,424.91,481.393,416.61,474.993,412.91z M226.593,428.41
		l-110.6-64l0.1-127.8l110.6,64L226.593,428.41z M240.093,277.21l-110.6-64l110.7-63.8l110.6,64L240.093,277.21z M364.293,364.51
		l-110.7,63.8l0.1-127.8l110.6-63.8V364.51z"/>
</g>
<g>
</g>
<g>
</g>
<g>
</g>
<g>
</g>
<g>
</g>
<g>
</g>
<g>
</g>
<g>
</g>
<g>
</g>
<g>
</g>
<g>
</g>
<g>
</g>
<g>
</g>
<g>
</g>
<g>
</g>
</svg>
