<?xml version="1.0" encoding="utf-8"?>
<!-- Svg Vector Icons : http://www.onlinewebfonts.com/icon -->
<!DOCTYPE svg PUBLIC "-//W3C//DTD SVG 1.1//EN" "http://www.w3.org/Graphics/SVG/1.1/DTD/svg11.dtd">
<svg version="1.1" xmlns="http://www.w3.org/2000/svg" xmlns:xlink="http://www.w3.org/1999/xlink" x="0px" y="0px" viewBox="0 0 1000 1000" enable-background="new 0 0 1000 1000" xml:space="preserve">
<metadata> Svg Vector Icons : http://www.onlinewebfonts.com/icon </metadata>
<g><g><g><path d="M903.7,490.7l-84-12.5c-3.8-76.3-35.5-145.2-85.4-196.6l79.2-79.2l-5.5-5.5l-79.1,79.1c-53.2-52.1-125.3-84.7-205-86.7l-11.1-75.2v75l0,0v-75l-11.2,75.6c-76.5,3.7-145.6,35.4-197.2,85.4l-79-78.2l-5.9,5.9l79,78.1c-51.4,52.6-83.7,123.8-86.3,202.3L139.6,494l72.7,10.8c2.9,77.5,34.7,147.6,85.1,199.9l-77.9,77.5l5.9,5.9l77.9-77.4c52.4,51.4,123.3,83.8,201.7,86.6l11.1,75.3v-74.7l0,0v74.7l11.1-75.3c78-2.9,148.5-34.9,200.9-85.9l79.5,79.5l5.9-5.9l-79.5-79.5c51.3-52.7,83.5-123.8,86-202.4L903.7,490.7z M440,449.6l-82.4,12.2c5.6-28,18.4-53.1,36.4-73.9L440,449.6z M411.8,370.3c19.4-16.4,42.5-28.2,68-34.1L468.7,411L411.8,370.3z M482.5,318.1c-4.2,0.8-8.3,1.7-12.4,2.8l-5.8-33.2c7.6-1.9,15.5-3.1,23.4-4.2L482.5,318.1z M466,321.9c-12.7,3.7-24.8,8.7-36.2,15l-16.1-29.5c14.5-8,30.1-14.2,46.5-18.7L466,321.9z M426.3,339.1c-10.3,6-19.7,13.3-28.5,21.2l-28-20c12.2-11.7,25.7-22,40.5-30.5L426.3,339.1z M383.8,374.1c-8.4,9.3-16.1,19.2-22.4,30.1l-26.8-20.4c8.2-13.5,18-25.7,28.8-37.1L383.8,374.1z M359.2,407.8c-6.4,11.6-11.3,24.1-15,37.1l-32.5-8.3c4.8-17.4,11.8-33.9,20.7-49.2L359.2,407.8z M343.2,448.9c-1.3,5.1-2.2,10.2-3,15.4l-34.7,5.1c1.2-9.8,2.8-19.4,5.2-28.8L343.2,448.9z M458.2,455.3l21.9,15.2l0,0.5c-2.5,4.5-4.2,9.4-5,14.6H253.4L458.2,455.3z M390.9,595.2c-16.1-19.6-27.5-43-32.8-68.8l74.2,11L390.9,595.2z M470.9,567.5l12.4,83.9c-28.6-5.9-54.3-19.4-75.3-38.3L470.9,567.5z M340.3,523.8c0.9,5.8,2.1,11.6,3.6,17.2l-33.2,5.6c-2.3-9.1-4-18.5-5.2-28L340.3,523.8z M345,545c4.2,13.8,10.1,26.8,17.3,38.9l-30.4,14.5c-8.6-14.9-15.3-30.9-20-47.8L345,545z M364.4,587.6c4.8,7.7,10.4,14.9,16.3,21.8l-19.9,27.9c-10-10.9-19.2-22.5-26.8-35.2L364.4,587.6z M394,623.3c9.4,8.9,19.8,16.9,31,23.6l-18.6,27.9c-14.6-8.8-28-19.5-40-31.4L394,623.3z M428.6,649.1c12,6.8,24.8,12.1,38.3,16l-8.6,32.4c-17.1-4.8-33.2-11.7-48.3-20.5L428.6,649.1z M471,666.1c4.9,1.2,9.9,2,14.9,2.9l5.1,34.7c-9.8-1.2-19.4-2.9-28.7-5.3L471,666.1z M477.4,554.6l1.6-3.2l13.5-19.4l6-0.4c2.9,1.5,5.9,2.7,9.1,3.5l0,223.5L477.4,554.6z M491.1,492.3c0-15.3,12.5-27.8,27.8-27.8c15.3,0,27.8,12.5,27.8,27.8c0,15.3-12.4,27.8-27.8,27.8C503.6,520.2,491.1,507.7,491.1,492.3z M595.7,536.3l78.9-11.7c-5.3,27-17.3,51.6-34.4,72L595.7,536.3z M622.1,615.4c-17.7,15.4-38.6,27.1-61.7,33.7l-0.6,0.1v0.1c-3.6,1-7.4,1.5-11,2.2l12-81.2l1,2L622.1,615.4z M558.5,423.4l-13.2-88.9c29.9,5.5,56.6,19.3,78.4,38.8L558.5,423.4z M638.6,388.6c16.5,19.3,28.4,42.4,34.4,67.9l-75-11.1L638.6,388.6z M690.9,459.2c-0.5-2.7-0.8-5.4-1.5-8l33-6.4c1.5,6.4,2.5,13,3.4,19.6L690.9,459.2z M688.4,447.1c-4-14.8-9.7-28.9-17.2-41.9l29.9-15.3c8.9,15.8,15.7,32.9,20.3,50.9L688.4,447.1z M669.1,401.6c-5.9-9.7-12.9-18.6-20.4-27l20-28c11.6,12,21.8,25.2,30.3,39.7L669.1,401.6z M637.2,362.8c-9.5-8.8-19.8-16.8-31-23.5l19.1-27.6c14.2,8.6,27.1,18.8,38.9,30.4L637.2,362.8z M602.6,337.2c-11.3-6.3-23.4-11.4-36.1-15.1l11.2-31.7c15.5,4.7,30.3,11.3,44.1,19.3L602.6,337.2z M562.4,321c-6.4-1.7-13-2.9-19.7-3.9l-5.1-34.6c12.3,1.3,24.4,3.5,36,6.8L562.4,321z M551.4,432.8l-13.5,19.4c-5.2-2.4-10.9-3.8-16.8-4.1V228L551.4,432.8z M546.1,669.1c5.6-0.9,11.2-2,16.6-3.5l6.1,33.1c-9.1,2.3-18.4,3.9-27.9,5.1L546.1,669.1z M566.8,664.6c13.6-4.1,26.5-9.8,38.6-16.8l14.9,30.2c-14.8,8.4-30.7,15-47.4,19.6L566.8,664.6z M609.1,645.6c9.6-5.9,18.4-12.9,26.8-20.5l28,20c-12,11.7-25.4,22.1-39.9,30.7L609.1,645.6z M650.3,610.3c6.7-7.8,13.1-15.9,18.4-24.7l27.3,19.7c-7.3,11.7-16,22.4-25.3,32.4L650.3,610.3z M671,582c7.6-13.3,13.5-27.6,17.6-42.7l32,10.2c-5.1,18.6-12.7,36-22.3,52.2L671,582z M689.6,535.3c1-4.3,1.7-8.8,2.5-13.3l34.3-5.1c-1.1,9.7-2.5,19.3-4.8,28.6L689.6,535.3z M585.1,529.4l-21.9-15.2l-0.8-12.9c0.2-0.7,0.4-1.5,0.5-2.2h223.8c0,0.2,0,0.3,0,0.5L585.1,529.4z M786,473.2l-51.6-7.6c-6.2-48.7-28.2-92.5-60.8-126l7.6-10.6l-10.2,7.8c-35.3-34.9-82.4-57.9-134.7-62.7l-7.6-51.1C665.6,229.4,776,337.4,786,473.2z M512.7,222.5v66.8V222.5L512.7,222.5z M496.5,223.3l-7.7,51.7c-8.8,1-17.6,2.4-26.1,4.5l0-0.2l-4.1,0.7l0.1,0.5c-36.6,9.9-69.5,29.1-96,54.7L345.7,323l12.4,16.7c-33.8,34.6-56.2,80.3-61.4,131.1l-51,7.5C253.3,342.4,361.2,233,496.5,223.3z M245.8,509.8l51.4,7.6c3.4,31.1,13,60.4,28,86.3l1,2l0.2-0.1c8.3,14,18.2,26.9,29.3,38.7l-10.1,14.2l13.9-10.1c34.7,35.1,81,58.4,132.7,64l7.6,51.2C363.4,755.5,254.1,646.2,245.8,509.8z M516,764.4v-67V764.4L516,764.4z M532.2,763.6l7.6-51.3c50.8-5.5,96.5-28.1,131-62.1l19.1,13.6l-14-19c32.6-34.4,54.2-79.3,59.2-129.1l51.2-7.6C778.9,645.3,669.2,755.4,532.2,763.6z"/><polygon points="500.1,51.1 500.3,51.1 528.3,88.5 557.2,88.5 557.2,21.7 532,21.7 532,58.8 531.7,58.8 504.9,21.7 474.8,21.7 474.8,88.5 500.1,88.5 "/><path d="M532.7,934.7l-31.5-4.7c-1.3-0.2-2.2-0.5-2.7-1.2c-0.5-0.6-0.8-1.3-0.8-2.2c0-1.5,0.8-2.6,2.3-3.5c1.5-0.9,4.3-1.3,8.2-1.3c1.4,0,2.9,0.1,4.3,0.3c1.5,0.2,2.8,0.6,3.9,1.1c1.3,0.5,2.3,1.2,3,2c0.7,0.8,1.1,2,1.1,3.3h30.6c-0.2-3.6-1.2-6.7-2.9-9.4c-1.7-2.7-4.3-5-7.8-6.8c-3.5-1.9-7.8-3.3-13.1-4.2c-5.3-1-11.7-1.5-19.1-1.5c-5.4,0-10.5,0.4-15.2,1c-4.7,0.6-8.8,1.8-12.3,3.5c-3.5,1.7-6.2,3.9-8.2,6.8c-2,2.9-3,6.4-3,10.7c0,2.4,0.4,4.6,1,6.6c0.7,2.1,1.7,3.9,3.2,5.5c1.5,1.6,3.4,3,5.6,4.2c2.3,1.1,5.1,2,8.4,2.5L518,952c1.8,0.3,3.1,0.9,3.8,1.7c0.7,0.8,1,1.8,1,2.8c0,1.6-0.7,2.9-2.1,3.9c-1.4,1-4.2,1.5-8.3,1.5c-4.1,0-7-0.4-9-1.4c-1.8-1-2.7-2.6-2.8-4.8h-31.8c0,4.9,1.2,8.8,3.8,11.8c2.5,2.9,5.8,5.2,9.9,6.8c4.1,1.6,8.6,2.7,13.7,3.1c5.1,0.5,10.1,0.7,15.1,0.7c14.8,0,25.7-1.9,32.6-5.8c6.9-3.9,10.3-9.9,10.3-18.1c0-5.7-1.9-10.1-5.7-13.3C544.7,937.8,539.4,935.7,532.7,934.7z"/><polygon points="85.1,500.7 84.9,500.7 75.2,460 54.1,460 44.3,500.7 44.1,500.7 35.5,460 10,460 29.4,526.8 55.3,526.8 64.5,489.7 64.7,489.7 73.8,526.8 99.7,526.8 119.2,460 93.7,460 "/><polygon points="990,472 990,455.8 919,455.8 919,522.6 990,522.6 990,506.3 945.4,506.3 945.4,497.3 986.8,497.3 986.8,481 945.4,481 945.4,472 "/></g></g><g></g><g></g><g></g><g></g><g></g><g></g><g></g><g></g><g></g><g></g><g></g><g></g><g></g><g></g><g></g></g>
</svg>