<svg width="21" height="23" viewBox="0 0 21 23" fill="none" xmlns="http://www.w3.org/2000/svg">
<path d="M11.72 1.78H17.66C17.7379 1.77864 17.8152 1.79298 17.8874 1.82215C17.9596 1.85132 18.0251 1.89473 18.0802 1.94979C18.1353 2.00485 18.1787 2.07043 18.2078 2.14262C18.237 2.21481 18.2514 2.29214 18.25 2.37V20.37C18.2514 20.4478 18.237 20.5252 18.2078 20.5974C18.1787 20.6696 18.1353 20.7351 18.0802 20.7902C18.0251 20.8453 17.9596 20.8887 17.8874 20.9178C17.8152 20.947 17.7379 20.9613 17.66 20.96H11.72C11.6421 20.9586 11.5648 20.973 11.4926 21.0021C11.4204 21.0313 11.3548 21.0747 11.2998 21.1298C11.2447 21.1848 11.2013 21.2504 11.1722 21.3226C11.143 21.3948 11.1286 21.4721 11.13 21.55V22.15C11.1286 22.2278 11.143 22.3052 11.1722 22.3774C11.2013 22.4496 11.2447 22.5151 11.2998 22.5702C11.3548 22.6253 11.4204 22.6687 11.4926 22.6978C11.5648 22.727 11.6421 22.7414 11.72 22.74H19.44C19.5179 22.7414 19.5952 22.727 19.6674 22.6978C19.7396 22.6687 19.8052 22.6253 19.8602 22.5702C19.9153 22.5151 19.9587 22.4496 19.9878 22.3774C20.017 22.3052 20.0314 22.2278 20.03 22.15V0.589996C20.0314 0.512143 20.017 0.434815 19.9878 0.362621C19.9587 0.290426 19.9153 0.224845 19.8602 0.169787C19.8052 0.114728 19.7396 0.0713191 19.6674 0.0421483C19.5952 0.0129775 19.5179 -0.00135809 19.44 -3.81317e-06H11.72C11.6421 -0.00135809 11.5648 0.0129775 11.4926 0.0421483C11.4204 0.0713191 11.3548 0.114728 11.2998 0.169787C11.2447 0.224845 11.2013 0.290426 11.1722 0.362621C11.143 0.434815 11.1286 0.512143 11.13 0.589996V1.19C11.1286 1.26785 11.143 1.34518 11.1722 1.41737C11.2013 1.48957 11.2447 1.55515 11.2998 1.61021C11.3548 1.66526 11.4204 1.70867 11.4926 1.73784C11.5648 1.76701 11.6421 1.78135 11.72 1.78Z" fill="black"/>
<path d="M6.69 5.22V7.87H0.879998C0.747338 7.88477 0.618978 7.92596 0.502485 7.99112C0.385993 8.05629 0.283725 8.14411 0.201711 8.24943C0.119698 8.35474 0.0595976 8.47541 0.0249543 8.60431C-0.00968891 8.73322 -0.0181743 8.86776 -1.56742e-06 9V14C-0.0196279 14.133 -0.0122362 14.2686 0.0217318 14.3987C0.0556998 14.5287 0.115546 14.6506 0.197694 14.757C0.279842 14.8635 0.382604 14.9522 0.499837 15.018C0.61707 15.0838 0.746367 15.1253 0.879998 15.14H6.69V17.95C6.69 18.22 6.92 18.39 7.1 18.26L15.57 11.91C15.6143 11.8724 15.6498 11.8257 15.6742 11.773C15.6986 11.7204 15.7112 11.663 15.7112 11.605C15.7112 11.547 15.6986 11.4896 15.6742 11.4369C15.6498 11.3843 15.6143 11.3375 15.57 11.3L7.1 4.92C6.92 4.78 6.69 5 6.69 5.22Z" fill="black"/>
</svg>
