<?xml version="1.0" encoding="utf-8"?>

<!DOCTYPE svg PUBLIC "-//W3C//DTD SVG 1.1//EN" "http://www.w3.org/Graphics/SVG/1.1/DTD/svg11.dtd">
<svg version="1.1" id="Layer_1" xmlns="http://www.w3.org/2000/svg" xmlns:xlink="http://www.w3.org/1999/xlink" x="0px" y="0px"
	 viewBox="0 0 1655.159 1661.425" enable-background="new 0 0 1655.159 1661.425" xml:space="preserve">
<path d="M346.553,350.293c-135.317-12.776-227.251,77.17-237.024,186.496c-4.517,50.525,13.049,105.753,11.264,153.719
	c-4.11,57.352-32.154,105.389-92.608,140.811c60.454,35.422,88.498,83.459,92.608,140.811
	c1.785,47.966-15.781,103.194-11.264,153.719c9.773,109.326,101.706,199.272,237.024,186.496
	c-12.776,135.317,77.17,227.251,186.496,237.024c50.525,4.517,105.753-13.049,153.719-11.264
	c57.352,4.11,105.389,32.154,140.811,92.608c35.422-60.454,83.459-88.498,140.811-92.608
	c47.966-1.785,103.194,15.781,153.719,11.264c109.326-9.773,199.272-101.706,186.496-237.024
	c135.317,12.776,227.251-77.17,237.024-186.496c4.517-50.525-13.049-105.753-11.264-153.719
	c4.11-57.352,32.154-105.389,92.608-140.811c-60.454-35.422-88.498-83.459-92.608-140.811
	c-1.785-47.966,15.781-103.194,11.264-153.719c-9.773-109.326-101.706-199.272-237.024-186.496v-1.213
	c12.776-135.317-77.17-227.251-186.496-237.024c-50.525-4.517-105.753,13.049-153.719,11.264
	c-57.352-4.11-105.389-32.154-140.811-92.608c-35.422,60.454-83.459,88.498-140.811,92.608
	c-47.966,1.785-103.194-15.781-153.719-11.264C423.723,121.83,333.777,213.763,346.553,349.08V350.293z"/>
</svg>
