<?xml version="1.0" encoding="utf-8"?>
<!-- Svg Vector Icons : http://www.onlinewebfonts.com/icon -->
<!DOCTYPE svg PUBLIC "-//W3C//DTD SVG 1.1//EN" "http://www.w3.org/Graphics/SVG/1.1/DTD/svg11.dtd">
<svg version="1.1" xmlns="http://www.w3.org/2000/svg" xmlns:xlink="http://www.w3.org/1999/xlink" x="0px" y="0px" viewBox="0 0 1000 1000" enable-background="new 0 0 1000 1000" xml:space="preserve">
<metadata> Svg Vector Icons : http://www.onlinewebfonts.com/icon </metadata>
<g><g transform="translate(0.000000,511.000000) scale(0.100000,-0.100000)"><path d="M107.7,3267.4l7.6-1742.6l56.1-104.6c71.4-135.2,232.2-273,362.3-311.3c260.2-79.1,576.6-2.6,727.2,176c142.9,168.4,153.1,214.3,163.3,875.1l10.2,609.8l961.9-959.3c648.1-648.1,990-972.1,1053.7-1000.2c153.1-61.2,395.5-51,551.1,28.1c321.5,158.2,451.6,556.2,290.9,867.5c-30.6,56.1-461.8,507.7-984.8,1030.8c-512.8,512.8-933.8,938.9-933.8,949.1c0,10.2,267.9,17.9,594.5,15.3c645.5,0,691.4,7.7,857.3,148c178.6,148,255.1,461.8,178.6,732.3c-33.2,119.9-176,283.2-313.8,357.2c-104.6,56.1-112.3,56.1-1847.2,63.8L100,5010L107.7,3267.4z"/><path d="M6430.1,4984.5c-262.8-81.7-421-275.6-449-556.2c-30.6-283.2,81.7-517.9,308.7-648.1l127.6-74h607.3c331.7,0,604.7-7.7,604.7-17.9c0-10.2-428.6-449-954.2-977.2C5649.3,1683,5654.4,1688.1,5654.4,1422.7c0-178.6,51-308.7,173.5-441.4c137.8-153.1,265.4-209.2,474.6-209.2c288.3,0,301.1,10.2,1344.6,1051.2l949.1,949.1l7.7-637.9l7.6-640.4l76.5-125c48.5-76.5,125-153.1,201.6-201.6c117.4-71.4,142.9-76.5,359.7-76.5c214.3,0,242.4,5.1,357.2,76.5c79.1,48.5,155.6,125,204.1,201.6l76.5,125l7.7,1757.9l5.1,1755.4l-1701.8-2.6C7259.3,5004.9,6465.8,4994.7,6430.1,4984.5z"/><path d="M3483.2-592.9c-56.1-20.4-107.2-38.3-112.3-38.3c-7.7,0-446.5-431.2-974.6-959.3l-961.9-959.3l-7.7,607.3l-10.2,609.8l-79.1,137.8c-96.9,170.9-234.7,275.5-426.1,313.8c-290.9,61.3-569-53.6-719.5-298.5l-76.5-122.5l-7.6-1745.2L100-4790l1757.9,5.1l1757.9,7.7l125,76.5c76.5,48.5,153.1,125,201.6,201.6c71.4,117.3,76.5,145.4,76.5,359.7c0,214.3-5.1,242.4-76.5,359.7c-48.5,76.5-125,153.1-201.6,201.6l-125,76.5l-625.1,7.6l-625.1,7.7l956.8,961.9c890.4,895.6,961.9,972.1,1002.7,1099.7c84.2,262.8,12.8,520.5-201.6,709.3C3945-557.2,3707.7-513.8,3483.2-592.9z"/><path d="M6088.2-592.9c-375.1-132.7-546-571.5-359.8-928.7c17.9-38.3,454.2-487.3,967-997.6c512.8-510.3,933.8-938.9,933.8-949.2c0-10.2-255.1-20.4-563.8-20.4c-630.2,0-709.3-12.8-864.9-148c-163.3-137.8-216.9-262.8-216.9-502.6c0-229.6,48.5-347,196.5-489.9c173.5-165.8,96.9-160.7,1997.7-160.7H9900v1722.2c0,1900.8,5.1,1824.3-160.7,1997.7c-142.9,150.5-260.3,196.5-489.9,193.9c-242.4,0-367.4-53.6-502.6-214.3c-135.2-155.6-148-232.2-148-895.6v-597l-961.9,961.9c-722.1,719.5-992.5,974.6-1079.3,1012.9C6422.4-547,6231.1-541.9,6088.2-592.9z"/></g></g>
</svg>