<?xml version="1.0" encoding="utf-8"?>
<!-- Svg Vector Icons : http://www.onlinewebfonts.com/icon -->
<!DOCTYPE svg PUBLIC "-//W3C//DTD SVG 1.1//EN" "http://www.w3.org/Graphics/SVG/1.1/DTD/svg11.dtd">
<svg version="1.1" xmlns="http://www.w3.org/2000/svg" xmlns:xlink="http://www.w3.org/1999/xlink" x="0px" y="0px" viewBox="0 0 1000 1000" enable-background="new 0 0 1000 1000" xml:space="preserve">
<metadata> Svg Vector Icons : http://www.onlinewebfonts.com/icon </metadata>
<g><path d="M500.6,297.3"/><path d="M500,10C229.4,10,10,229.4,10,500s219.4,490,490,490s490-219.4,490-490S770.6,10,500,10z M500,836.9c-185.8,0-336.9-151.1-336.9-336.9c0-185.8,151.1-336.9,336.9-336.9S836.9,314.2,836.9,500C836.9,685.8,685.8,836.9,500,836.9z"/><path d="M423.4,288.2c0,42.3,34.3,76.6,76.6,76.6s76.6-34.3,76.6-76.6s-34.3-76.6-76.6-76.6S423.4,245.9,423.4,288.2z"/><path d="M508.9,410.7h-17.9c-37.2,0-67.6,30.4-67.6,67.6v242.4c0,37.2,30.4,67.6,67.6,67.6h17.9c37.2,0,67.6-30.4,67.6-67.6V478.3C576.6,441.1,546.1,410.7,508.9,410.7z"/></g>
</svg>