<?xml version="1.0" standalone="no"?>
<!DOCTYPE svg PUBLIC "-//W3C//DTD SVG 20010904//EN"
 "http://www.w3.org/TR/2001/REC-SVG-20010904/DTD/svg10.dtd">
<svg version="1.0" xmlns="http://www.w3.org/2000/svg"
 width="225.000000pt" height="225.000000pt" viewBox="0 0 225.000000 225.000000"
 preserveAspectRatio="xMidYMid meet">

<g transform="translate(0.000000,225.000000) scale(0.100000,-0.100000)"
fill="#000000" stroke="none">
<path d="M145 2235 c-51 -18 -120 -91 -134 -141 -15 -55 -15 -1883 0 -1939 15
-53 91 -129 144 -144 56 -15 1884 -15 1940 0 53 15 129 91 144 144 15 56 15
1884 0 1940 -15 53 -91 129 -144 144 -28 8 -321 11 -975 11 -780 -1 -942 -3
-975 -15z m1724 -923 c152 -446 150 -441 177 -448 15 -4 24 -13 24 -25 0 -18
-9 -19 -120 -19 -113 0 -120 1 -120 20 0 13 7 20 20 20 32 0 33 22 8 107 l-24
78 -121 3 -120 3 -22 -86 c-23 -91 -21 -105 10 -105 12 0 19 -7 19 -20 0 -18
-7 -20 -85 -20 -78 0 -85 2 -85 20 0 11 6 20 13 20 8 0 21 8 29 18 9 9 61 168
117 352 56 184 104 341 106 348 2 7 21 12 42 12 l38 0 94 -278z m-1419 238 c0
-14 -7 -20 -24 -20 -42 0 -47 -18 -44 -171 l3 -143 108 143 c59 78 107 146
107 152 0 6 -9 13 -20 16 -11 3 -20 14 -20 24 0 17 9 19 100 19 91 0 100 -2
100 -19 0 -12 -9 -20 -29 -24 -22 -5 -50 -34 -119 -120 l-90 -115 105 -193
c109 -203 134 -239 165 -239 11 0 18 -7 18 -20 0 -18 -7 -20 -87 -20 l-88 0
-87 168 c-116 222 -108 213 -141 170 -26 -33 -27 -40 -27 -154 0 -127 5 -144
47 -144 16 0 23 -6 23 -20 0 -19 -7 -20 -140 -20 -133 0 -140 1 -140 20 0 15
7 20 28 20 15 0 33 5 40 12 9 9 12 95 12 325 0 299 -1 313 -19 323 -11 5 -29
10 -40 10 -14 0 -21 6 -21 20 0 19 7 20 140 20 133 0 140 -1 140 -20z m620 1
c0 -13 -9 -20 -30 -24 -18 -4 -30 -13 -30 -23 0 -19 159 -516 169 -527 10 -10
164 494 159 524 -2 16 -10 25 -25 27 -15 2 -23 10 -23 23 0 17 8 19 90 19 82
0 90 -2 90 -19 0 -12 -9 -21 -24 -25 -14 -3 -28 -16 -32 -29 -5 -12 -56 -173
-114 -357 l-106 -335 -43 0 -43 0 -119 348 c-65 192 -123 355 -130 363 -6 8
-20 14 -30 14 -12 0 -19 7 -19 20 0 19 7 20 130 20 120 0 130 -1 130 -19z"/>
<path d="M1659 1262 l-46 -157 95 -3 c52 -1 97 -1 99 2 5 5 -86 297 -96 308
-4 5 -27 -63 -52 -150z"/>
</g>
</svg>
