<?xml version="1.0" standalone="no"?>
<!DOCTYPE svg PUBLIC "-//W3C//DTD SVG 20010904//EN"
 "http://www.w3.org/TR/2001/REC-SVG-20010904/DTD/svg10.dtd">
<svg version="1.0" xmlns="http://www.w3.org/2000/svg"
 width="300.000000pt" height="300.000000pt" viewBox="0 0 300.000000 300.000000"
 preserveAspectRatio="xMidYMid meet">

<g transform="translate(0.000000,300.000000) scale(0.100000,-0.100000)"
fill="#000000" stroke="none">
<path d="M152 2563 l-33 -28 -2 -990 c-1 -545 2 -1007 6 -1027 5 -26 19 -46
44 -65 l36 -28 1266 0 c1186 0 1268 1 1301 17 70 35 65 -39 68 1043 2 665 0
992 -7 1016 -6 20 -20 48 -32 63 l-20 26 -1298 0 -1297 0 -32 -27z m2602 -48
c8 -9 18 -30 21 -48 3 -18 4 -461 3 -984 l-3 -952 -23 -23 -23 -23 -1254 0
-1254 0 -23 23 -23 23 -2 962 c-3 954 -1 1018 30 1031 7 2 580 5 1274 5 1121
1 1263 -1 1277 -14z"/>
<path d="M500 1515 l0 -455 55 0 55 0 0 113 0 113 53 52 c29 29 57 52 62 52 6
0 51 -74 100 -165 l90 -165 63 0 c34 0 62 3 62 6 0 4 -52 95 -115 204 -63 108
-115 201 -115 206 0 5 53 62 117 126 l118 118 -70 0 -70 0 -140 -140 c-77 -77
-143 -140 -147 -140 -5 0 -8 119 -8 265 l0 265 -55 0 -55 0 0 -455z"/>
<path d="M1070 1965 c0 -7 78 -224 229 -642 23 -62 51 -141 62 -175 12 -35 26
-69 32 -75 6 -8 34 -13 71 -13 l62 0 31 88 c17 48 77 218 133 377 56 160 113
320 126 357 13 37 24 72 24 78 0 6 -27 10 -64 10 l-63 0 -124 -375 c-68 -206
-127 -371 -131 -367 -6 6 -41 105 -123 347 -13 39 -49 142 -79 230 -31 88 -56
161 -56 163 0 4 -130 2 -130 -3z"/>
<path d="M2085 1783 c-37 -103 -85 -233 -106 -288 -55 -143 -159 -426 -159
-431 0 -2 29 -4 64 -4 l64 0 47 135 48 135 177 0 178 0 30 -77 c16 -43 38
-104 48 -135 l18 -58 68 0 c37 0 68 3 68 8 0 4 -76 207 -168 452 l-167 445
-71 3 -70 3 -69 -188z m163 -13 c6 -19 33 -100 61 -179 28 -79 51 -145 51
-147 0 -2 -61 -4 -135 -4 -74 0 -135 3 -135 8 0 4 21 66 46 137 25 72 49 141
54 155 30 91 39 96 58 30z"/>
</g>
</svg>
