<svg width="23" height="22" viewBox="0 0 23 22" fill="none" xmlns="http://www.w3.org/2000/svg">
<path d="M20.92 13.05V19C20.92 19.077 20.9047 19.1533 20.8749 19.2243C20.8451 19.2953 20.8015 19.3597 20.7466 19.4137C20.6917 19.4677 20.6266 19.5102 20.555 19.5388C20.4835 19.5673 20.407 19.5813 20.33 19.58H2.33C2.18143 19.5723 2.0415 19.5078 1.93914 19.3999C1.83677 19.2919 1.7798 19.1488 1.78 19V13.05C1.78 12.8935 1.71784 12.7435 1.60719 12.6328C1.49655 12.5222 1.34648 12.46 1.19 12.46H0.59C0.433522 12.46 0.283453 12.5222 0.172807 12.6328C0.0621605 12.7435 6.40816e-09 12.8935 6.40816e-09 13.05V20.78C-1.14415e-05 20.857 0.0153155 20.9333 0.0450866 21.0043C0.0748577 21.0753 0.118477 21.1397 0.173398 21.1937C0.22832 21.2477 0.293444 21.2902 0.364971 21.3188C0.436499 21.3473 0.512996 21.3613 0.59 21.36H22.11C22.187 21.3613 22.2635 21.3473 22.335 21.3188C22.4066 21.2902 22.4717 21.2477 22.5266 21.1937C22.5815 21.1397 22.6251 21.0753 22.6549 21.0043C22.6847 20.9333 22.7 20.857 22.7 20.78V13.05C22.7 12.8935 22.6378 12.7435 22.5272 12.6328C22.4165 12.5222 22.2665 12.46 22.11 12.46H21.51C21.3535 12.46 21.2035 12.5222 21.0928 12.6328C20.9822 12.7435 20.92 12.8935 20.92 13.05Z" fill="black"/>
<path d="M4.78 9H7.43V14.81C7.44469 14.9436 7.48618 15.0729 7.55198 15.1902C7.61778 15.3074 7.70654 15.4102 7.81296 15.4923C7.91938 15.5745 8.04127 15.6343 8.17134 15.6683C8.30142 15.7022 8.437 15.7096 8.57 15.69H13.52C13.653 15.7096 13.7886 15.7022 13.9187 15.6683C14.0487 15.6343 14.1706 15.5745 14.277 15.4923C14.3835 15.4102 14.4722 15.3074 14.538 15.1902C14.6038 15.0729 14.6453 14.9436 14.66 14.81V9H17.48C17.75 9 17.92 8.77 17.78 8.59L11.43 0.139999C11.3924 0.0957447 11.3457 0.0601918 11.2931 0.0358083C11.2404 0.0114247 11.183 -0.00120544 11.125 -0.00120544C11.067 -0.00120544 11.0096 0.0114247 10.9569 0.0358083C10.9043 0.0601918 10.8576 0.0957447 10.82 0.139999L4.47 8.61C4.34 8.79 4.51 9 4.78 9Z" fill="black"/>
</svg>
