<svg width="23" height="20" viewBox="0 0 23 20" fill="none" xmlns="http://www.w3.org/2000/svg">
<path d="M20.92 11.72V17.66C20.9214 17.7379 20.907 17.8152 20.8778 17.8874C20.8487 17.9596 20.8053 18.0252 20.7502 18.0802C20.6952 18.1353 20.6296 18.1787 20.5574 18.2078C20.4852 18.237 20.4079 18.2514 20.33 18.25H2.33C2.25215 18.2514 2.17482 18.237 2.10262 18.2078C2.03043 18.1787 1.96485 18.1353 1.90979 18.0802C1.85473 18.0252 1.81132 17.9596 1.78215 17.8874C1.75298 17.8152 1.73865 17.7379 1.74 17.66V11.72C1.74135 11.6421 1.72702 11.5648 1.69785 11.4926C1.66868 11.4204 1.62527 11.3549 1.57021 11.2998C1.51515 11.2447 1.44957 11.2013 1.37738 11.1722C1.30518 11.143 1.22785 11.1286 1.15 11.13H0.59C0.512147 11.1286 0.434818 11.143 0.362624 11.1722C0.29043 11.2013 0.224849 11.2447 0.16979 11.2998C0.114732 11.3549 0.0713229 11.4204 0.0421521 11.4926C0.0129813 11.5648 -0.00135427 11.6421 1.52795e-09 11.72V19.44C0.00522299 19.5921 0.0700024 19.736 0.180371 19.8408C0.29074 19.9455 0.437856 20.0027 0.59 20H22.11C22.1879 20.0014 22.2652 19.987 22.3374 19.9578C22.4096 19.9287 22.4752 19.8853 22.5302 19.8302C22.5853 19.7752 22.6287 19.7096 22.6578 19.6374C22.687 19.5652 22.7014 19.4879 22.7 19.41V11.72C22.7014 11.6421 22.687 11.5648 22.6578 11.4926C22.6287 11.4204 22.5853 11.3549 22.5302 11.2998C22.4752 11.2447 22.4096 11.2013 22.3374 11.1722C22.2652 11.143 22.1879 11.1286 22.11 11.13H21.51C21.4321 11.1286 21.3548 11.143 21.2826 11.1722C21.2104 11.2013 21.1448 11.2447 21.0898 11.2998C21.0347 11.3549 20.9913 11.4204 20.9622 11.4926C20.933 11.5648 20.9186 11.6421 20.92 11.72Z" fill="black"/>
<path d="M17.48 6.69H14.82V0.880002C14.8053 0.746371 14.7638 0.617074 14.698 0.499841C14.6322 0.382608 14.5435 0.279846 14.437 0.197698C14.3306 0.11555 14.2087 0.0557036 14.0787 0.0217356C13.9486 -0.0122323 13.813 -0.0196241 13.68 2.24728e-06H8.73C8.597 -0.0196241 8.46142 -0.0122323 8.33134 0.0217356C8.20127 0.0557036 8.07938 0.11555 7.97296 0.197698C7.86654 0.279846 7.77778 0.382608 7.71198 0.499841C7.64618 0.617074 7.60469 0.746371 7.59 0.880002V6.69H4.78C4.51 6.69 4.34 6.92 4.47 7.1L10.82 15.57C10.8576 15.6143 10.9043 15.6498 10.9569 15.6742C11.0096 15.6986 11.067 15.7112 11.125 15.7112C11.183 15.7112 11.2404 15.6986 11.2931 15.6742C11.3457 15.6498 11.3924 15.6143 11.43 15.57L17.78 7.1C17.92 6.92 17.75 6.69 17.48 6.69Z" fill="black"/>
</svg>
