<?xml version="1.0"?>
<svg xmlns:rdf="http://www.w3.org/1999/02/22-rdf-syntax-ns#" xmlns="http://www.w3.org/2000/svg" xmlns:cc="http://web.resource.org/cc/" xmlns:xlink="http://www.w3.org/1999/xlink" xmlns:dc="http://purl.org/dc/elements/1.1/" xmlns:svg="http://www.w3.org/2000/svg" id="svg2" viewBox="0 0 256.38 261.75" version="1.0">
  <title id="title4">generated by pstoedit version:3.44 from c:/docume~1/steren/locals~1/temp/gsviewa05128</title>
  <path id="path2125" stroke-width="0" d="m125.34 0.0001-1 0.15625h-3l-1 0.1875h-1l-1 0.15625h-1l-1 0.1875-1.1875 0.15625h-1l-1 0.15625-1 0.1875-1.1562 0.15625 2 14.031-1.1875 0.15625-1 0.15625-1 0.15625-1 0.1875-0.84375 0.15625-1 0.15625-0.96875 0.1875-0.84375 0.15625-1 0.15625-0.84375 0.34375-1 0.15625-0.84375 0.15625-1 0.1875-0.84375 0.15625-0.8125 0.34375-1 0.15625-0.84375 0.34375-0.84375 0.15625-1 0.34375-0.84375 0.15625-0.8125 0.34375-1.0312 0.15625-0.8125 0.34375-0.8125 0.34375-1.0312 0.3125-0.8125 0.34375-1.0312 0.34375-0.8125 0.34375-1 0.3125-1 0.5-1 0.34375-0.84375 0.5-5.6875-13.188-1 0.5-1 0.5-1 0.3125-1 0.53125-1 0.5-1 0.5-1 0.5-1 0.5-1 0.5-1 0.5-0.84375 0.5-1 0.65625-1 0.5-1 0.5-0.84375 0.5-1 0.6875-1 0.5-0.8125 0.65625-1 0.5-1 0.65625-0.84375 0.6875-1 0.5-1 0.65625-0.84375 0.6875-1 0.65625-0.84375 0.65625-1 0.65625-0.84375 0.6875-1 0.84375-1 0.65625-0.8125 0.84375-1 0.65625 8.8438 10.844-0.6875 0.5-0.65625 0.5-0.5 0.5-0.6875 0.65625-0.65625 0.53125-0.65625 0.46875-0.6875 0.6875-0.5 0.5-0.65625 0.65625-0.65625 0.5-0.6875 0.6875-0.65625 0.5-0.5 0.65625-0.65625 0.65625-0.6875 0.6875-0.65625 0.5-0.6875 0.65625-0.46875 0.65625-0.6875 0.6875-0.65625 0.8125-0.6875 0.6875-0.65625 0.65625-0.65625 0.84375-0.5 0.65625-0.6875 0.84375-0.65625 0.65625-0.65625 0.84375-0.6875 0.8125-0.65625 0.84375-0.5 0.84375-0.6875 0.84375-0.65625 0.84375-11.188-8.1875-0.5 0.84375-0.5 0.65625-0.65625 0.84375-0.5 0.8125-0.5 0.65625-0.53125 0.84375-0.46875 0.84375-0.6875 0.84375-0.5 0.8125-0.5 0.84375-0.5 0.84375-0.5 0.8125-0.5 0.84375-0.5 0.8125-0.5 1.0312-0.5 0.8125-0.5 1.0312-0.5 0.8125-0.5 1-0.5 0.84375-0.5 1-0.5 1-0.5 1-0.34375 1-0.5 1-0.5 1-0.5 1-0.5 1-0.34375 1.1875-0.46875 1-0.5 1.1562-0.53125 1.1562 12.844 5-0.3125 0.84375-0.34375 0.84375-0.34375 0.84375-0.3125 0.8125-0.34375 0.84375-0.15625 0.84375-0.34375 0.8125-0.3125 0.84375-0.34375 0.84375-0.1875 1-0.3125 0.8125-0.1875 0.84375-0.3125 1-0.15625 0.84375-0.34375 0.84375-0.1875 0.96875-0.15625 0.84375-0.15625 1.0312-0.34375 0.8125-0.15625 1-0.15625 1-0.1875 1-0.15625 1-0.34375 1-0.15625 1-0.1875 1-0.15625 1-0.15625 1-0.1875 1-0.15625 1.1875-0.15625 1v1.1562l-13.188-1.5-0.1875 1v1l-0.15625 1v1.8438l-0.15625 1v18.5l0.15625 1v1.8438l0.15625 1v1l0.1875 1 13.188-1.5v1.1562l0.15625 1 0.15625 1.1875 0.1875 1 0.15625 1 0.15625 1 0.1875 1 0.15625 1 0.34375 1 0.15625 1 0.1875 1 0.15625 1 0.15625 1 0.34375 0.8125 0.15625 1.0312 0.15625 0.84375 0.1875 0.96875 0.34375 0.84375 0.15625 0.84375 0.3125 1 0.1875 0.84375 0.3125 0.8125 0.1875 1 0.34375 0.84375 0.3125 0.84375 0.34375 0.8125 0.15625 0.84375 0.34375 0.84375 0.3125 0.8125 0.34375 0.84375 0.34375 0.84375 0.3125 0.84375-12.844 5 0.53125 1.1562 0.5 1.1562 0.46875 1 0.34375 1.1875 0.5 1 0.5 1 0.5 1 0.5 1 0.34375 1 0.5 1 0.5 1 0.5 1 0.5 0.84375 0.5 1 0.5 0.8125 0.5 1.0312 0.5 0.8125 0.5 1.0312 0.5 0.8125 0.5 0.84375 0.5 0.8125 0.5 0.84375 0.5 0.84374 0.5 0.8125 0.6875 0.84375 0.46875 0.84375 0.53125 0.84375 0.5 0.65625 0.5 0.8125 0.65625 0.84375 0.5 0.65625 0.5 0.84375 11.188-8.1875 0.65625 0.84375 0.6875 0.84374 0.5 0.84375 0.65625 0.84375 0.6875 0.8125 0.65625 0.84375 0.65625 0.65625 0.6875 0.84375 0.5 0.65625 0.65625 0.84375 0.65625 0.65625 0.6875 0.6875 0.65625 0.8125 0.6875 0.6875 0.46875 0.65625 0.6875 0.65625 0.65625 0.5 0.6875 0.6875 0.65625 0.65625 0.5 0.65625 0.65625 0.5 0.6875 0.6875 0.65625 0.5 0.65625 0.65625 0.5 0.5 0.6875 0.6875 0.65625 0.46875 0.65625 0.53125 0.6875 0.65625 0.5 0.5 0.65625 0.5 0.6875 0.5-8.8438 10.844 1 0.65625 0.8125 0.84375 1 0.65625 1 0.84375 0.84375 0.6875 1 0.65625 0.84375 0.65625 1 0.65625 0.84375 0.6875 1 0.65625 1 0.5 0.84375 0.6875 1 0.65625 1 0.5 0.8125 0.65625 1 0.5 1 0.6875 0.84375 0.5 1 0.5 1 0.5 1 0.65625 0.84375 0.5 1 0.5 1 0.5 1 0.5 1 0.5 1 0.5 1 0.5 1 0.53125 1 0.3125 1 0.5 1 0.5 5.6875-13.188 0.84375 0.5 1 0.34375 1 0.5 1 0.3125 0.8125 0.34375 1.0312 0.34375 0.8125 0.34375 1.0312 0.3125 0.8125 0.34375 0.8125 0.34375 1.0312 0.15625 0.8125 0.34375 0.84375 0.15625 1 0.34375 0.84375 0.15625 0.84375 0.34375 1 0.15625 0.8125 0.34375 0.84375 0.15625 1 0.1875 0.84375 0.15625 1 0.15625 0.84375 0.34375 1 0.15625 0.84375 0.15625 0.96875 0.1875 1 0.15625 0.84375 0.15625 1 0.1875 1 0.15625 1 0.15625 1.1875 0.15625-2 14.031 1.1562 0.15625 1 0.1875 1 0.15625h1l1.1875 0.15625 1 0.1875h1l1 0.15625h1l1 0.1875h3l1 0.15625h7.8438l0.84375-0.15625h2l1-0.1875h1l1-0.15625h1l1-0.1875 1-0.15625h1l-1.5-14.531 1-0.15625 1.1875-0.15625 1-0.15625h1l1.1562-0.1875 1-0.3125 1.1562-0.1875 1-0.15625 1.1875-0.15625 1-0.15625 1-0.34375 1.1562-0.15625 1-0.34375 1-0.1875 1-0.3125 1.1875-0.34375 1-0.15625 1-0.34375 1-0.34375 1-0.3125 1-0.34375 1-0.34375 1.0312-0.3125 0.96875-0.34375 1-0.34375 1-0.5 1-0.34375 0.84375-0.3125 1-0.5 1-0.34375 0.84375-0.5 1-0.3125 5.6875 13.344 1-0.34375 1-0.5 0.8125-0.5 1-0.34375 0.84375-0.5 1-0.5 0.84375-0.3125 0.8125-0.5 1-0.53125 0.84375-0.5 0.84375-0.3125 0.8125-0.5 0.875-0.5 0.8125-0.5 1-0.5 0.84375-0.5 0.65625-0.5 0.84375-0.5 0.8125-0.5 0.84375-0.53125 0.84375-0.46875 0.84375-0.5 0.65625-0.53125 0.84375-0.5 0.65625-0.65625 0.84375-0.5 0.65625-0.5 0.84375-0.5 0.6875-0.65625 0.8125-0.5 0.6875-0.5 0.65625-0.6875-8.8438-11.656 0.84375-0.5 0.65625-0.6875 0.8125-0.65625 0.84375-0.5 0.84375-0.65625 0.6875-0.6875 0.8125-0.8125 0.84375-0.6875 0.8125-0.65625 0.65625-0.65625 0.84375-0.84375 0.84375-0.6875 0.8125-0.8125 0.6875-0.84375 0.84375-0.65625 0.84375-0.84375 0.65625-0.84375 0.84375-0.84375 0.65625-0.65625 0.65625-0.84375 0.84375-0.8125 0.6875-0.84375 0.65625-0.84375 0.65625-0.65625 0.65625-0.8125 0.6875-0.84375 0.5-0.84375 0.65625-0.65625 0.53125-0.84375 0.65625-0.68749 0.5-0.8125 0.5-0.65625 11.688 8.6562 0.65625-0.8125 0.5-0.84375 0.6875-0.6875 0.46875-0.8125 0.53125-0.84375 0.65625-0.8125 0.5-0.84375 0.5-0.84375 0.65625-0.99999 0.5-0.84375 0.5-0.8125 0.5-1 0.5-0.84375 0.5-0.84375 0.5-1 0.5-0.84375 0.53125-1 0.46875-0.8125 0.53125-1 0.5-0.84375 0.46875-1 0.34375-0.84375 0.5-1 0.34375-0.8125 0.5-1 0.34375-0.84375 0.5-0.84375 0.3125-1 0.34375-0.84375 0.3125-0.8125 0.375-0.84375 0.3125-0.84375-13.5-5.4688 0.46875-1.0312 0.34375-1 0.34375-1 0.34375-1 0.3125-1 0.34375-1.1562 0.34375-1 0.3125-1 0.34375-1 0.34375-1 0.3125-1 0.1875-1.1875 0.3125-1 0.34375-1 0.15625-1 0.34375-1 0.15625-1 0.15625-1 0.34375-1 0.1875-1 0.15625-1 0.15625-1 0.1875-1 0.125-1 0.1875-1v-1.0312l0.1875-0.8125 0.15625-1v-1l0.1875-1v-1.8438l14.344 1.3438 0.15625-1v-0.84375l0.1875-1v-1l0.15625-1v-8l-0.0312-0.25 0.0312-0.25v-8l-0.15625-1v-1l-0.1875-1v-0.84375l-0.15625-1-14.344 1.3438v-1.8438l-0.1875-1v-1l-0.15625-1-0.1875-0.8125v-1.0312l-0.1875-1-0.125-1-0.1875-1-0.15625-1-0.15625-1-0.1875-1-0.34375-1-0.15625-1-0.15625-1-0.34375-1-0.15625-1-0.34375-1-0.3125-1-0.1875-1.1875-0.3125-1-0.34375-1-0.34375-1-0.3125-1-0.34375-1-0.34375-1.1562-0.3125-1-0.34375-1-0.34375-1-0.34375-1-0.46875-1.0312 13.5-5.4688-0.3125-0.84375-0.375-0.84375-0.3125-0.8125-0.34375-0.84375-0.3125-1-0.5-0.84375-0.34375-0.84375-0.5-1-0.34375-0.8125-0.5-1-0.34375-0.84375-0.46875-1-0.5-0.84375-0.53125-1-0.46875-0.8125-0.53125-1-0.5-0.84375-0.5-1-0.5-0.84375-0.5-0.84375-0.5-1-0.5-0.8125-0.5-0.84375-0.65625-1-0.5-0.84375-0.5-0.84375-0.65625-0.8125-0.53125-0.84375-0.46875-0.8125-0.6875-0.6875-0.5-0.84375-0.65625-0.8125-11.688 8.6562-0.5-0.65625-0.5-0.8125-0.65625-0.6875-0.53125-0.84375-0.65625-0.65625-0.5-0.84375-0.6875-0.84375-0.65625-0.8125-0.65625-0.65625-0.65625-0.84375-0.6875-0.84375-0.84375-0.8125-0.65625-0.84375-0.65625-0.65625-0.84375-0.84375-0.65625-0.84375-0.84375-0.84375-0.84375-0.65625-0.6875-0.84375-0.8125-0.8125-0.84375-0.6875-0.84375-0.84375-0.65625-0.65625-0.8125-0.65625-0.84375-0.6875-0.8125-0.8125-0.6875-0.6875-0.84375-0.65625-0.84375-0.5-0.8125-0.65625-0.65625-0.6875-0.84375-0.5 8.8438-11.656-0.65625-0.6875-0.6875-0.5-0.8125-0.5-0.6875-0.65625-0.84375-0.5-0.65625-0.5-0.84375-0.5-0.65625-0.65625-0.84375-0.5-0.65625-0.53125-0.84375-0.5-0.84375-0.46875-0.84375-0.53125-0.8125-0.5-0.84375-0.5-0.65625-0.5-0.84375-0.5-1-0.5-0.8125-0.5-0.875-0.5-0.8125-0.5-0.84375-0.3125-0.84375-0.5-1-0.53125-0.8125-0.5-0.84375-0.3125-1-0.5-0.84375-0.5-1-0.34375-0.8125-0.5-1-0.5-1-0.34375-5.6875 13.344-1-0.3125-0.84375-0.5-1-0.34375-1-0.5-0.84375-0.3125-1-0.34375-1-0.5-1-0.34375-0.96875-0.34375-1.0312-0.3125-1-0.34375-1-0.34375-1-0.3125-1-0.34375-1-0.34375-1-0.15625-1.1875-0.34375-1-0.3125-1-0.1875-1-0.34375-1.1562-0.15625-1-0.34375-1-0.15625-1.1875-0.15625-1-0.15625-1.1562-0.1875-1-0.3125-1.1562-0.1875h-1l-1-0.15625-1.1875-0.15625-1-0.15625 1.5-14.531h-1l-1-0.15625-1-0.1875h-1l-1-0.15625h-1l-1-0.1875h-2l-0.84-0.2075h-7.8438zm2.6875 34.375 5.3438 0.15625 5.125 0.34375 5.2188 0.84375 5.1562 1 5.1875 1.3438 5 1.6562 5 1.8125 5 2.1875 4.6875 2.5 4.8438 2.8438 4.5 3 4.3438 3.5 4.3438 3.5 4.1562 4 3.8438 4.3438 3.8438 4.5h-0.34375c3.465 4.4766 6.5519 9.2524 9.1875 14.312v-0.125l0.53125 1.1875c6.2888 12.452 9.9092 26.47 10.156 41.312h-0.0312c0.0228 0.75579 0.0524 1.5191 0.0625 2.2812-0.0101 0.76212-0.0397 1.5255-0.0625 2.2812h0.0312c-0.24708 14.842-3.8675 28.86-10.156 41.312l-0.53125 1.1875v-0.125c-2.6356 5.0601-5.7224 9.8359-9.1875 14.312h0.34375l-3.8438 4.5-3.8438 4.3438-4.1562 4-4.3438 3.5-4.3438 3.5-4.5 3-4.8438 2.8438-4.6875 2.5-5 2.1875-5 1.8125-5 1.6562-5.1875 1.3438-5.1562 1-5.2188 0.84375-5.125 0.34375-5.3438 0.15625-5.1875-0.15625-5.3438-0.34375-5.1875-0.84375-5.1562-1-5.1875-1.3438-5-1.6562-5-1.8125-5.0312-2.1875-4.6562-2.6562-4.8438-2.6875-4.5-3.1562-4.5-3.3438-4.1875-3.8438-4.1562-4-4.0312-4.3125-3.6562-4.5312h0.1875c-3.4891-4.5506-6.5526-9.4168-9.1875-14.562l-0.0312 0.21875-0.40625-1.0938c-6.1659-12.353-9.753-26.222-10-40.906h0.0312c-0.0228-0.75579-0.0524-1.5191-0.0625-2.2812 0.0101-0.76212 0.0397-1.5255 0.0625-2.2812h-0.0312c0.24961-14.678 3.8365-28.558 10-40.906l0.40625-1.0938 0.0312 0.21875c2.635-5.1457 5.6984-10.012 9.1875-14.562h-0.1875l3.6562-4.5312 4.0312-4.3125 4.1562-4 4.1875-3.8438 4.5-3.3438 4.5-3.1562 4.8438-2.6875 4.6562-2.6562 5.0312-2.1875 5-1.8125 5-1.6562 5.1875-1.3438 5.1562-1 5.1875-0.84375 5.3438-0.34375 5.1875-0.15625z"/>
  <g id="layer2" transform="translate(-92.372 7.7759)">
    <text id="text5523" font-size="12px" xml:space="preserve" transform="matrix(1.4132 0 0 1.3864 -15.471 -324.97)" line-height="125%" y="-108.7233" x="386.8548" font-family="Courier New" fill="#ffffff">
      <tspan id="tspan5527" line-height="125%" font-size="12px" font-family="Courier New" fill="#ffffff">CENTRALE LYON</tspan>
    </text>
  </g>
  <metadata>
    <rdf:RDF>
      <cc:Work>
        <dc:format>image/svg+xml</dc:format>
        <dc:type rdf:resource="http://purl.org/dc/dcmitype/StillImage"/>
        <cc:license rdf:resource="http://creativecommons.org/licenses/publicdomain/"/>
        <dc:publisher>
          <cc:Agent rdf:about="http://openclipart.org/">
            <dc:title>Openclipart</dc:title>
          </cc:Agent>
        </dc:publisher>
        <dc:title>Gear</dc:title>
        <dc:date>2009-03-10T20:26:04</dc:date>
        <dc:description>clip art, clipart, cog, cog, gear, gear, image, industry, industry, machinery, machinery, mechanics, mechanics, media, png, public domain, svg, technology, technology, wheel, wheel, </dc:description>
        <dc:source>http://openclipart.org/detail/22109/gear-by-steren</dc:source>
        <dc:creator>
          <cc:Agent>
            <dc:title>Steren</dc:title>
          </cc:Agent>
        </dc:creator>
        <dc:subject>
          <rdf:Bag>
            <rdf:li>clip art</rdf:li>
            <rdf:li>clipart</rdf:li>
            <rdf:li>cog</rdf:li>
            <rdf:li>gear</rdf:li>
            <rdf:li>image</rdf:li>
            <rdf:li>industry</rdf:li>
            <rdf:li>machinery</rdf:li>
            <rdf:li>mechanics</rdf:li>
            <rdf:li>media</rdf:li>
            <rdf:li>png</rdf:li>
            <rdf:li>public domain</rdf:li>
            <rdf:li>svg</rdf:li>
            <rdf:li>technology</rdf:li>
            <rdf:li>wheel</rdf:li>
          </rdf:Bag>
        </dc:subject>
      </cc:Work>
      <cc:License rdf:about="http://creativecommons.org/licenses/publicdomain/">
        <cc:permits rdf:resource="http://creativecommons.org/ns#Reproduction"/>
        <cc:permits rdf:resource="http://creativecommons.org/ns#Distribution"/>
        <cc:permits rdf:resource="http://creativecommons.org/ns#DerivativeWorks"/>
      </cc:License>
    </rdf:RDF>
  </metadata>
</svg>
